# xmcd
#
# Track frame offsets: 
#        150
#        13197
#        22535
#        34827
#        47312
#        59472
#        72525
#        87272
#        103930
#        116035
#        132285
#
# Disc length: 1923 seconds
#
# Revision: 0
# Processed by: cddbd v1.5.1PL0 Copyright (c) Steve Scherf et al.
# Submitted via: ExactAudioCopy v0.95a4
#
DISCID=8f07810b
DTITLE=Cherryholmes - Bluegrass Vagabonds
DYEAR=2003
DGENRE=Bluegrass
TTITLE0=Please Don't Say It
TTITLE1=You're The Girl Of My Dreams
TTITLE2=I Can See
TTITLE3=Indian Treasure
TTITLE4=Where Will You Build
TTITLE5=I Won't Go Away
TTITLE6=Will He Wait A Little Longer
TTITLE7=Once Upon A Time
TTITLE8=Five 'N Chimes
TTITLE9=Some Morning Soon
TTITLE10=Meadows Of Dan
EXTD=
EXTT0=
EXTT1=
EXTT2=
EXTT3=
EXTT4=
EXTT5=
EXTT6=
EXTT7=
EXTT8=
EXTT9=
EXTT10=
PLAYORDER=
